<svg version="1" xmlns="http://www.w3.org/2000/svg" width="640" height="640" viewBox="0 0 480.000000 480.000000"><path d="M13.5 35.4C7.5 38.2 4.8 41 2.1 47 .1 51.5 0 52.7 0 191.4c0 103.3.3 140.9 1.2 143.7 1.5 5.2 7.3 11.7 12.2 14 3.9 1.8 8.7 1.9 87.9 1.9H185v53h-32.6c-21.6 0-34 .4-36.5 1.1-15.2 4.6-19.9 25.2-8.3 36.1 6.6 6.1-1.3 5.8 132.4 5.8 133.7 0 125.8.3 132.4-5.8 11.6-10.9 6.9-31.5-8.3-36.1-2.5-.7-14.9-1.1-36.5-1.1H295v-53h83.8c79.1 0 83.9-.1 87.8-1.9 4.9-2.3 10.7-8.8 12.2-14 .9-2.8 1.2-40.4 1.2-143.7 0-138.7-.1-139.9-2.1-144.4-2.7-6-5.4-8.8-11.4-11.6l-5-2.4h-443l-5 2.4zM445 192.5V317H35V68h410v124.5z"/><path d="M259.5 103.5c-5.5 1.9-7.8 5-10.9 14.2-24.7 75.2-46.8 145.6-46.9 149.1 0 4.6 1.9 8.1 6.6 11.6 5.1 3.8 15.6 1.7 19.3-3.8 2.9-4.6 50.6-153.8 50.6-158.5 0-9.5-9.4-15.8-18.7-12.6zM185 143.7c-.8.3-18.4 8.4-39 18-23.7 11-38.6 18.4-40.4 20.3-2.3 2.3-3 4-3.4 8.3-.5 6.2 1.3 10.5 5.5 13.4 3.6 2.5 75.9 36 79.5 36.8 4 1 9.3-1.1 12.8-5.1 2.5-2.9 3-4.3 3-8.5 0-5.8-1.8-9.9-5.5-12.3-1.4-.9-12.4-6.2-24.3-11.7-11.9-5.5-22-10.3-22.4-10.7-.4-.4 9.5-5.4 22-11.2 28.8-13.2 31.1-15.2 30.2-26-.6-7.9-10.5-14.1-18-11.3zM284.3 144.6c-3.7 1.8-7 6.6-7.3 10.4-.9 10.8.9 12.4 29.4 25.6 12.9 6 23.2 11.2 22.8 11.6-.4.4-11.3 5.6-24.2 11.6-26.8 12.4-28 13.4-28 22.8 0 4.5.5 5.9 3 8.8 3.5 4 8.8 6.1 12.8 5.1 3.6-.8 76-34.3 79.5-36.7 7.8-5.5 7.5-19-.5-24.2-6.3-4.1-76.7-35.9-80.3-36.3-2.5-.2-5.2.3-7.2 1.3z"/></svg>